<?xml version="1.0" standalone="no"?>
<!DOCTYPE svg PUBLIC "-//W3C//DTD SVG 20010904//EN"
 "http://www.w3.org/TR/2001/REC-SVG-20010904/DTD/svg10.dtd">
<svg version="1.0" xmlns="http://www.w3.org/2000/svg"
 width="479.000000pt" height="352.000000pt" viewBox="0 0 479.000000 352.000000"
 preserveAspectRatio="xMidYMid meet">
<metadata>
Created by potrace 1.16, written by Peter Selinger 2001-2019
</metadata>
<g transform="translate(0.000000,352.000000) scale(0.100000,-0.100000)"
fill="#000000" stroke="none">
<path d="M510 1751 l0 -942 25 -24 24 -25 389 0 c335 0 397 2 441 17 28 9 51
19 51 22 0 3 -36 79 -80 169 l-79 162 -205 0 -206 0 0 419 0 420 -175 357
c-96 196 -177 359 -180 362 -3 3 -5 -419 -5 -937z"/>
<path d="M1780 2160 c0 -11 7 -23 15 -26 12 -5 15 -26 15 -105 0 -81 -3 -99
-15 -99 -9 0 -15 -9 -15 -25 0 -25 0 -25 95 -25 112 0 156 15 185 62 24 40 27
126 5 169 -29 54 -67 69 -182 69 -97 0 -103 -1 -103 -20z m200 -40 c24 -13 44
-74 36 -113 -10 -50 -42 -77 -93 -77 l-43 0 0 100 0 100 41 0 c22 0 49 -4 59
-10z"/>
<path d="M2110 2155 c0 -16 6 -25 15 -25 12 0 15 -18 15 -100 0 -82 -3 -100
-15 -100 -9 0 -15 -9 -15 -25 0 -24 3 -25 60 -25 57 0 60 1 60 25 0 16 -6 25
-15 25 -11 0 -15 11 -15 40 l0 40 65 0 65 0 0 -40 c0 -29 -4 -40 -15 -40 -9 0
-15 -9 -15 -25 0 -24 2 -25 65 -25 63 0 65 1 65 25 0 16 -6 25 -15 25 -12 0
-15 18 -15 100 0 82 3 100 15 100 9 0 15 9 15 25 0 24 -2 25 -65 25 -63 0 -65
-1 -65 -25 0 -16 6 -25 15 -25 11 0 15 -11 15 -40 l0 -40 -65 0 -65 0 0 40 c0
29 4 40 15 40 9 0 15 9 15 25 0 24 -3 25 -60 25 -57 0 -60 -1 -60 -25z"/>
<path d="M2562 2163 c-5 -10 -26 -66 -46 -125 -24 -68 -43 -108 -52 -108 -8 0
-14 -10 -14 -25 0 -24 3 -25 60 -25 57 0 60 1 60 25 0 16 -6 25 -15 25 -13 0
-14 4 -5 20 9 16 21 20 65 20 30 0 55 -2 55 -4 0 -2 3 -11 6 -20 4 -11 1 -16
-10 -16 -10 0 -16 -9 -16 -25 0 -24 3 -25 60 -25 57 0 60 1 60 25 0 14 -6 25
-13 25 -8 0 -31 51 -57 125 l-45 125 -42 0 c-30 0 -45 -5 -51 -17z"/>
<path d="M2800 2155 c0 -16 6 -25 15 -25 12 0 15 -18 15 -100 0 -82 -3 -100
-15 -100 -9 0 -15 -9 -15 -25 l0 -25 115 0 115 0 0 50 c0 49 -1 50 -30 50 -25
0 -30 -4 -30 -25 0 -22 -4 -25 -40 -25 l-40 0 0 100 c0 82 3 100 15 100 9 0
15 9 15 25 0 24 -3 25 -60 25 -57 0 -60 -1 -60 -25z"/>
<path d="M3060 2155 c0 -16 6 -25 15 -25 12 0 15 -18 15 -100 0 -82 -3 -100
-15 -100 -9 0 -15 -9 -15 -25 0 -24 3 -25 60 -25 57 0 60 1 60 25 0 16 -6 25
-15 25 -12 0 -15 18 -15 100 0 82 3 100 15 100 9 0 15 9 15 25 0 24 -3 25 -60
25 -57 0 -60 -1 -60 -25z"/>
<path d="M3200 2159 c0 -12 8 -23 20 -26 12 -3 24 -19 30 -42 5 -20 20 -74 33
-121 l23 -85 40 -3 39 -3 24 86 c14 47 27 88 31 90 4 2 18 -35 32 -83 l25 -87
39 -3 39 -3 34 126 c28 103 37 125 52 125 14 0 19 7 19 25 0 24 -2 25 -65 25
-62 0 -65 -1 -65 -24 0 -13 5 -26 11 -28 8 -3 7 -26 -6 -80 -19 -79 -28 -88
-39 -41 -4 16 -16 58 -27 96 -19 63 -22 67 -49 67 -26 0 -30 -5 -45 -57 -34
-122 -38 -133 -45 -133 -4 0 -12 24 -19 53 -6 28 -14 62 -17 75 -5 16 -2 22
10 22 10 0 16 9 16 25 0 24 -2 25 -70 25 -64 0 -70 -2 -70 -21z"/>
<path d="M3729 2059 c-30 -86 -48 -123 -61 -127 -11 -2 -18 -14 -18 -28 0 -23
3 -24 65 -24 63 0 65 1 65 25 0 16 -6 25 -16 25 -11 0 -14 5 -10 16 3 9 6 18
6 20 0 2 25 4 55 4 43 0 57 -4 62 -17 4 -9 1 -19 -5 -21 -7 -2 -12 -15 -12
-28 0 -23 3 -24 60 -24 57 0 60 1 60 24 0 15 -7 26 -16 28 -11 2 -31 43 -59
123 l-43 120 -45 3 -45 3 -43 -122z"/>
<path d="M4000 2155 c0 -16 6 -25 15 -25 12 0 15 -18 15 -100 0 -82 -3 -100
-15 -100 -9 0 -15 -9 -15 -25 l0 -25 115 0 115 0 0 50 c0 47 -2 50 -25 50 -18
0 -26 -7 -31 -25 -5 -21 -12 -25 -40 -25 l-34 0 0 100 c0 82 3 100 15 100 9 0
15 9 15 25 0 24 -2 25 -65 25 -63 0 -65 -1 -65 -25z"/>
<path d="M1783 1804 c-4 -10 -2 -19 5 -22 15 -5 16 -138 2 -147 -5 -3 -10 -13
-10 -21 0 -10 12 -14 45 -14 38 0 45 3 45 20 0 11 -4 20 -10 20 -6 0 -10 27
-9 63 l1 62 25 -68 c22 -57 30 -67 47 -65 15 2 27 19 44 63 l23 60 -5 -77 -4
-78 39 0 c32 0 39 3 39 20 0 11 -4 20 -10 20 -6 0 -10 30 -10 70 0 40 4 70 10
70 6 0 10 9 10 20 0 17 -7 20 -44 20 l-44 0 -23 -64 c-13 -36 -26 -63 -29 -60
-2 3 -14 31 -25 62 -20 56 -21 57 -63 60 -33 2 -44 -1 -49 -14z"/>
<path d="M2133 1806 c-40 -18 -53 -43 -53 -101 0 -64 39 -105 100 -105 55 0
79 14 97 57 41 100 -47 192 -144 149z"/>
<path d="M2310 1780 c0 -29 4 -40 15 -40 8 0 15 9 15 20 0 15 7 20 25 20 24 0
25 -2 25 -70 0 -40 -4 -70 -10 -70 -5 0 -10 -9 -10 -20 0 -17 7 -20 45 -20 33
0 45 4 45 14 0 8 -4 18 -10 21 -5 3 -10 37 -10 76 0 62 2 69 19 69 11 0 23 -9
26 -20 12 -37 35 -23 35 20 l0 40 -105 0 -105 0 0 -40z"/>
<path d="M2604 1811 c-12 -5 -31 -22 -44 -38 -31 -40 -24 -117 14 -150 38 -32
105 -32 143 1 24 21 28 31 28 80 0 46 -4 60 -26 81 -27 28 -82 40 -115 26z"/>
<path d="M2770 1800 c0 -11 5 -20 10 -20 6 0 10 -30 10 -69 0 -39 -4 -73 -10
-76 -5 -3 -10 -13 -10 -21 0 -10 12 -14 40 -14 28 0 40 4 40 14 0 8 -4 18 -10
21 -19 11 -11 45 10 45 13 0 27 -14 40 -40 17 -33 26 -40 50 -40 20 0 30 5 30
15 0 8 -4 15 -10 15 -5 0 -17 11 -26 24 -14 23 -14 27 6 54 18 24 21 35 13 59
-11 34 -55 52 -130 52 -47 1 -53 -1 -53 -19z"/>
<path d="M3022 1805 c-29 -13 -33 -19 -30 -47 3 -29 10 -36 55 -58 29 -14 55
-29 59 -33 13 -12 -18 -37 -47 -37 -22 0 -29 5 -29 20 0 14 -7 20 -21 20 -17
0 -20 -5 -17 -32 3 -32 4 -33 56 -36 71 -4 104 16 100 61 -3 28 -10 35 -55 57
-52 25 -69 52 -39 63 25 10 56 -4 56 -25 0 -34 35 -17 38 18 3 28 0 32 -29 38
-44 9 -59 7 -97 -9z"/>
<path d="M3180 1800 c0 -11 5 -20 10 -20 6 0 10 -30 10 -69 0 -39 -4 -73 -10
-76 -5 -3 -10 -13 -10 -21 0 -10 12 -14 40 -14 28 0 40 4 40 14 0 8 -4 18 -10
21 -22 14 -10 35 20 35 41 0 86 24 93 50 3 12 1 34 -5 50 -11 34 -53 50 -130
50 -41 0 -48 -3 -48 -20z"/>
<path d="M3450 1809 c-40 -16 -60 -49 -60 -102 0 -40 5 -53 29 -78 23 -23 38
-29 71 -29 55 0 79 14 97 57 18 45 9 104 -21 132 -27 26 -81 35 -116 20z"/>
<path d="M3613 1805 c-4 -11 -2 -20 5 -23 15 -5 17 -152 2 -152 -5 0 -10 -7
-10 -15 0 -11 12 -15 45 -15 33 0 45 4 45 14 0 8 -4 18 -10 21 -19 11 -11 45
10 45 13 0 27 -14 40 -40 17 -33 26 -40 50 -40 20 0 30 5 30 15 0 8 -7 15 -15
15 -9 0 -21 11 -27 25 -9 20 -8 28 5 43 23 25 21 75 -2 96 -12 11 -44 19 -90
23 -62 5 -71 4 -78 -12z"/>
<path d="M3830 1780 c0 -30 4 -40 16 -40 9 0 18 9 21 20 3 11 14 20 24 20 17
0 19 -8 19 -69 0 -39 -4 -73 -10 -76 -5 -3 -10 -13 -10 -21 0 -10 12 -14 45
-14 38 0 45 3 45 20 0 11 -4 20 -10 20 -6 0 -10 30 -10 70 0 68 1 70 25 70 18
0 25 -5 25 -20 0 -11 7 -20 15 -20 11 0 15 11 15 40 l0 40 -105 0 -105 0 0
-40z"/>
<path d="M4102 1805 c-29 -13 -33 -19 -30 -47 3 -28 10 -36 48 -55 63 -31 74
-41 59 -59 -6 -8 -24 -14 -40 -14 -22 0 -29 5 -29 20 0 13 -7 20 -20 20 -16 0
-20 -7 -20 -35 l0 -35 58 0 c74 0 104 19 100 63 -3 28 -10 36 -55 57 -59 28
-71 45 -44 59 26 14 61 2 61 -21 0 -34 35 -17 38 18 3 28 0 32 -29 38 -44 9
-59 7 -97 -9z"/>
</g>
</svg>
